<svg width="1060" height="1160" viewBox="0 0 1060 1160" fill="none" xmlns="http://www.w3.org/2000/svg">
<g clip-path="url(#clip0_94_302)">
<path fill-rule="evenodd" clip-rule="evenodd" d="M635.24 227.892C662.179 232.702 689.511 237.583 718.676 246.888C719.214 247.064 719.792 247.252 720.41 247.453C761.796 260.918 979.048 331.602 1044.04 588.517C1110.01 849.262 947.489 1073.57 709.909 1133.67C472.33 1193.78 211.103 1060.97 146.886 807.134C82.6686 553.295 251.176 385.029 282.939 357.123C292.145 348.594 300.838 340.97 309.307 333.541C335.215 310.817 359.043 289.917 389.168 250.528C407.778 224.89 421.635 192.107 411.321 122.462C457.547 155.919 512.399 194.367 548.189 207.3C577.936 217.66 606.362 222.735 635.24 227.892ZM379.917 911.384C361.568 834.66 415.317 744.634 505.742 720.406C572.862 702.809 637.903 727.776 691.954 748.525C730.574 763.35 763.583 776.021 787.729 769.472C812.433 762.689 842.536 728.758 872.253 695.263C901.509 662.287 930.392 629.732 953.381 623.916C1002.66 611.45 1029.39 659.128 1037.1 689.628C1044.82 720.129 1048.9 777.711 1034.25 818.045C1019.59 858.38 1007.44 875.093 979.641 880.009C962.817 882.818 932.491 864.438 900.238 844.891C863.034 822.343 823.267 798.241 798.708 803.321C773.142 808.855 740.647 841.57 703.93 878.536C657.387 925.394 604.06 979.081 549.463 992.893C490.331 1007.85 470.364 1003.44 447.368 995.676C412.575 982.49 389.879 954.721 379.875 911.219L379.917 911.384ZM839.692 875.671C825.955 870.739 808.927 873.989 793.148 877.981L793.203 877.967C791.368 878.431 789.623 878.858 787.947 879.269C775.213 882.386 766.517 884.514 753.284 894.356C738.595 905.282 725.259 924.917 716.653 937.59L716.158 938.318C707.573 950.954 707.745 959.553 715.599 965.679C723.415 971.777 728.088 965.449 741.241 947.64L741.428 947.387C742.585 945.82 743.701 944.279 744.797 942.765L744.802 942.758L744.803 942.757C756.297 926.888 765.592 914.054 797.077 906.088C830.816 897.553 840.205 907.946 850.163 918.969L850.534 919.379L850.833 919.709L850.934 919.821C861.062 931.009 862.558 932.661 868.411 927.02C870.18 925.908 871.683 924.422 872.813 922.667C873.944 920.913 874.676 918.932 874.956 916.865C875.237 914.798 875.06 912.695 874.437 910.705C873.814 908.715 872.761 906.886 871.353 905.347L871.274 905.238C864.839 896.376 853.372 880.583 839.692 875.671ZM777.481 1031.68C714.363 1047.65 681.554 1042.31 657.86 1031.55L657.998 1031.4C657.506 1031.23 657.106 1031.08 656.763 1030.95L656.76 1030.95C654.717 1030.17 654.717 1030.17 649.646 1031.45C644.145 1033.27 639.501 1037.04 636.597 1042.05C635.513 1043.73 634.787 1045.61 634.464 1047.59C634.141 1049.56 634.227 1051.58 634.717 1053.52C635.207 1055.45 636.091 1057.27 637.314 1058.85C638.536 1060.43 640.072 1061.75 641.825 1062.71C695.144 1091.14 766.366 1069.95 818.385 1051.56C854.817 1037.65 886.916 1014.35 911.41 984.046C913.179 981.443 914.107 978.362 914.07 975.218C914.033 972.074 913.032 969.018 911.203 966.461C909.199 962.735 903.731 957.886 896.606 966.979C880.461 986.76 840.6 1015.72 777.481 1031.68Z" fill="url(#paint0_linear_94_302)" fill-opacity="0.192"/>
</g>
<defs>
<linearGradient id="paint0_linear_94_302" x1="2078.24" y1="-935.686" x2="44.1822" y2="-47.4838" gradientUnits="userSpaceOnUse">
<stop/>
<stop offset="1" stop-color="white" stop-opacity="0"/>
</linearGradient>
<clipPath id="clip0_94_302">
<rect width="923.603" height="1053.56" fill="white" transform="translate(0 226.52) rotate(-14.197)"/>
</clipPath>
</defs>
</svg>
