<svg width="212" height="437" viewBox="0 0 212 437" fill="none" xmlns="http://www.w3.org/2000/svg">
<path d="M186.719 0.919922H33.0095C19.0543 0.919922 7.7284 12.2459 7.7284 26.201V179.91C7.7284 193.866 19.0543 205.191 33.0095 205.191H106.578C105.617 245.439 96.2629 277.647 78.5661 301.866C64.6109 320.979 43.4764 336.805 15.2116 349.294C2.2171 355.007 -3.3953 370.378 2.67217 383.221L20.8746 421.649C26.7398 433.985 41.2512 439.396 53.7906 433.985C87.2628 419.525 115.528 401.221 138.583 378.974C166.697 351.822 185.96 321.181 196.376 287.001C206.792 252.821 212 206.203 212 147.045V26.201C212 12.2464 200.673 0.919922 186.719 0.919922Z" fill="#050C33"/>
</svg>